# xmcd
#
# Track frame offsets:
#	150
#	10066
#	23211
#	40057
#	58227
#	76814
#	92306
#	107402
#	128865
#	143195
#
# Disc length: 2134 seconds
#
# Revision: 6
# Processed by: cddbd v1.5.1PL2 Copyright (c) Steve Scherf et al.
# Submitted via: EasyCDDAExtractor 9.0.0.1
#
DISCID=7108540a
DTITLE=Elvis Presley - The Original Elvis Presley Collection 49 - From Elvis P
DTITLE=resley Boulevard, Memphis, Tennessee 38116
DYEAR=1976
DGENRE=
TTITLE0=Hurt
TTITLE1=Never Again
TTITLE2=Blue Eyes Crying In The Rain
TTITLE3=Danny Boy
TTITLE4=The Last Farewell
TTITLE5=For The Heart
TTITLE6=Bitter They Are, Harder They Fall
TTITLE7=Solitaire
TTITLE8=Love Coming 'Down
TTITLE9=I'll Never Fall In Love Again
EXTD=
EXTT0=
EXTT1=
EXTT2=
EXTT3=
EXTT4=
EXTT5=
EXTT6=
EXTT7=
EXTT8=
EXTT9=
PLAYORDER=
